<svg width="83" height="83" viewBox="0 0 83 83" fill="none" xmlns="http://www.w3.org/2000/svg">
<circle cx="41.5" cy="41.5" r="41.5" fill="#FDF753"/>
<path d="M30.96 56.64C30.6 58.08 30.44 59.16 30.48 59.88C30.52 60.6 30.86 61.08 31.5 61.32C32.14 61.56 33.14 61.72 34.5 61.8L34.26 63C33.34 62.92 32.18 62.88 30.78 62.88C29.42 62.84 28.04 62.82 26.64 62.82C25.08 62.82 23.64 62.84 22.32 62.88C21 62.88 19.9 62.92 19.02 63L19.32 61.8C20.64 61.72 21.66 61.56 22.38 61.32C23.14 61.08 23.74 60.6 24.18 59.88C24.62 59.16 25.02 58.08 25.38 56.64L33.3 26.88C33.7 25.4 33.86 24.32 33.78 23.64C33.7 22.92 33.34 22.44 32.7 22.2C32.1 21.92 31.12 21.76 29.76 21.72L30.06 20.52C30.86 20.56 31.94 20.6 33.3 20.64C34.66 20.68 36.12 20.7 37.68 20.7C39.08 20.7 40.46 20.68 41.82 20.64C43.22 20.6 44.4 20.56 45.36 20.52L45.06 21.72C43.7 21.76 42.64 21.92 41.88 22.2C41.12 22.44 40.52 22.92 40.08 23.64C39.68 24.32 39.28 25.4 38.88 26.88L30.96 56.64ZM50.94 60.54C51.98 60.54 52.84 60.16 53.52 59.4C54.2 58.64 54.82 57.46 55.38 55.86L56.4 52.8H57.6L56.04 57.42C55.28 59.62 54.3 61.24 53.1 62.28C51.9 63.32 50.44 63.84 48.72 63.84C46.84 63.84 45.48 63.24 44.64 62.04C43.84 60.84 43.52 59.12 43.68 56.88L44.1 50.1C44.22 48.02 44.18 46.42 43.98 45.3C43.82 44.18 43.52 43.32 43.08 42.72C42.68 42.12 42.14 41.58 41.46 41.1L41.58 40.5C42.74 40.74 43.8 41 44.76 41.28C45.76 41.56 46.62 42.02 47.34 42.66C48.06 43.26 48.6 44.2 48.96 45.48C49.32 46.72 49.46 48.46 49.38 50.7L49.14 57.48C49.1 58.36 49.16 59.1 49.32 59.7C49.52 60.26 50.06 60.54 50.94 60.54ZM42.3 41.4C40.1 42 38.6 42.2 37.8 42C37.04 41.8 36.66 41.42 36.66 40.86C36.66 40.3 37.04 39.92 37.8 39.72C38.6 39.52 40.1 39.72 42.3 40.32V41.4ZM57.18 21.78C56.42 22.46 55.76 23.42 55.2 24.66C54.68 25.86 54.18 27.18 53.7 28.62C53.22 30.06 52.68 31.52 52.08 33C51.48 34.44 50.72 35.76 49.8 36.96C48.92 38.16 47.8 39.14 46.44 39.9C45.12 40.62 43.48 40.96 41.52 40.92L41.64 40.32C43.84 40.12 45.6 39.48 46.92 38.4C48.24 37.32 49.3 35.98 50.1 34.38C50.9 32.78 51.58 31.12 52.14 29.4C52.7 27.64 53.28 26.02 53.88 24.54C54.48 23.06 55.28 21.9 56.28 21.06C56.96 20.5 57.6 20.14 58.2 19.98C58.8 19.78 59.36 19.68 59.88 19.68C61.28 19.68 62.24 20.04 62.76 20.76C63.28 21.44 63.5 22.26 63.42 23.22C63.38 23.7 63.24 24.24 63 24.84C62.76 25.44 62.38 25.96 61.86 26.4C61.38 26.84 60.74 27.06 59.94 27.06C59.06 27.06 58.44 26.8 58.08 26.28C57.72 25.72 57.56 25.12 57.6 24.48C57.64 23.92 57.84 23.32 58.2 22.68C58.56 22 59 21.42 59.52 20.94C59.48 20.94 59.44 20.94 59.4 20.94C59.4 20.94 59.38 20.94 59.34 20.94C58.82 20.98 58.4 21.08 58.08 21.24C57.8 21.36 57.5 21.54 57.18 21.78Z" fill="#313131"/>
</svg>
