<svg width="58" height="44" viewBox="0 0 58 44" fill="none" xmlns="http://www.w3.org/2000/svg">
<rect x="1" y="1" width="56" height="42" rx="7" stroke="#313131" stroke-width="2" stroke-linecap="round" stroke-linejoin="round"/>
<g clip-path="url(#clip0_852_216)">
<path d="M46.1314 36H39.362V24.2899C39.362 23.5501 38.8654 22.1843 38.3757 21.6083C36.4727 19.3696 32.3104 21.1681 32.3104 24.0078V36H25.541V15.7778H32.3104V18.5995L32.9661 17.7035C35.6261 14.4107 41.3621 14.5254 44.0601 17.7087C45.5712 19.4916 46.0287 21.9103 46.1353 24.192C46.3167 28.0757 45.9917 32.1024 46.1314 36.0001V36Z" fill="#313131"/>
<path d="M21.8749 15.7778H15.1055V36.0002H21.8749V15.7778Z" fill="#313131"/>
<path d="M18.0944 6.02354C23.3688 5.53748 23.7866 12.736 18.818 13.0483C13.8158 13.3626 13.265 6.46863 18.0944 6.02354Z" fill="#313131"/>
</g>
<defs>
<clipPath id="clip0_852_216">
<rect width="31.4386" height="30" fill="white" transform="translate(14.7539 6)"/>
</clipPath>
</defs>
</svg>
