<svg width="58" height="44" viewBox="0 0 58 44" fill="none" xmlns="http://www.w3.org/2000/svg">
<path d="M57 7.3V36.7C57 38.3709 56.3192 39.9733 55.1075 41.1548C53.8957 42.3363 52.2522 43 50.5385 43H7.46154C5.74783 43 4.10431 42.3363 2.89254 41.1548C1.68077 39.9733 1 38.3709 1 36.7V7.3M57 7.3C57 5.62914 56.3192 4.02671 55.1075 2.84523C53.8957 1.66375 52.2522 1 50.5385 1H7.46154C5.74783 1 4.10431 1.66375 2.89254 2.84523C1.68077 4.02671 1 5.62914 1 7.3M57 7.3V7.9804C57.0001 9.05601 56.7178 10.1137 56.1799 11.0528C55.642 11.9919 54.8665 12.7811 53.9272 13.3452L32.3887 26.2672C31.3698 26.8791 30.1967 27.2031 29 27.2031C27.8033 27.2031 26.6302 26.8791 25.6113 26.2672L4.07282 13.348C3.13352 12.7839 2.35798 11.9947 1.8201 11.0556C1.28221 10.1165 0.999878 9.05881 1 7.9832V7.3" stroke="#313131" stroke-width="2" stroke-linecap="round" stroke-linejoin="round"/>
</svg>
