<?xml version="1.0" encoding="UTF-8"?>
<svg id="Layer_2" data-name="Layer 2" xmlns="http://www.w3.org/2000/svg" viewBox="0 0 191.559 280.488">
  <defs>
    <style>
      .cls-1 {
        fill: #fff;
      }

      .cls-2 {
        fill: #4befbc;
      }

      .cls-3 {
        fill: #7d69f4;
      }

      .cls-4 {
        fill: #1e2237;
      }

      .cls-5 {
        fill: #fdfefe;
      }
    </style>
  </defs>
  <g>
    <path class="cls-3" d="M53.145,125.811c-36.66,19.087-46.317,67.706-37.981,59.675,19.136-18.438,66.914-41.404,65.173-37.533l-27.192-22.141Z"/>
    <path class="cls-4" d="M52.387,124.516c-12.511,6.554-22.701,16.886-30.164,28.79-3.071,4.898-5.687,10.084-7.782,15.473-1.505,3.871-2.791,7.898-3.352,12.025-.269,1.978-.784,5.499,1.313,6.743.968.574,2.089.301,2.967-.297.793-.54,1.451-1.279,2.155-1.923,1.129-1.033,2.29-2.032,3.472-3.005,10.746-8.849,22.968-16.039,35.207-22.602,5.154-2.764,10.379-5.415,15.724-7.792,1.759-.782,3.486-1.519,5.317-2.167.602-.213,1.21-.418,1.829-.579.232-.06.466-.106.7-.157.343-.076-.219.072-.069.008.06-.026.178-.013.243-.011.297.011-.205-.039-.19-.031.044.021-.287-.144-.358-.201-.338-.268-.49-.631-.515-1.013-.007-.104.112-.471.008-.223l2.507-.662c-7.937-6.463-15.874-12.926-23.812-19.389-1.127-.917-2.253-1.835-3.38-2.752-1.485-1.209-3.62.901-2.121,2.121,7.937,6.463,15.874,12.926,23.812,19.389,1.127.917,2.253,1.835,3.38,2.752.94.766,2.051.427,2.507-.662.564-1.348-.79-2.356-1.993-2.326-1.176.03-2.382.498-3.473.888-4.305,1.541-8.464,3.539-12.563,5.552-12.284,6.034-24.281,12.869-35.517,20.691-5.069,3.529-9.848,7.342-14.4,11.511-.264.241.131-.076-.012.013-.076.048-.168.097-.238.154-.378.312.189-.113-.153.062.175-.09.519.06.612.152-.179-.176.05.2.082.11.004-.011-.116-.189-.107-.191.006-.002.093.306.037.074-.027-.111-.064-.221-.092-.332-.025-.099-.038-.2-.058-.3-.048-.238.029.387,0-.017-.019-.27-.036-.539-.039-.81-.015-1.603.157-2.538.444-4.001.388-1.981.926-3.932,1.543-5.853,1.604-4.995,3.77-9.8,6.299-14.392,6.474-11.752,15.542-22.29,26.951-29.478,1.56-.983,3.161-1.898,4.794-2.754,1.711-.896.196-3.486-1.514-2.59Z"/>
  </g>
  <g>
    <path class="cls-3" d="M140.396,125.811c36.66,19.087,46.317,67.706,37.981,59.675-19.136-18.438-66.914-41.404-65.173-37.533l27.192-22.141Z"/>
    <path class="cls-4" d="M139.639,127.107c12.28,6.433,22.222,16.57,29.459,28.312,2.948,4.783,5.499,9.836,7.468,15.101.778,2.08,1.471,4.195,2.034,6.344.242.925.46,1.857.642,2.796.163.839.257,1.434.319,2.009.071.652.119,1.31.109,1.967-.004.254-.021.505-.038.758-.025.377.037-.166,0,.017-.022.112-.044.223-.066.335-.018.09-.053.176-.074.266-.081.346.01-.146.04-.07.015.038-.094.158-.105.195-.055.197.257-.254.068-.088.119-.105.446-.206.587-.157-.329-.113.249.255-.128-.056-.069-.057-.161-.107-.238-.154-.148-.092.263.246-.044-.042-.896-.839-1.789-1.679-2.711-2.489-2.418-2.125-4.953-4.117-7.536-6.035-11.147-8.276-23.28-15.312-35.623-21.635-4.659-2.387-9.379-4.687-14.23-6.662-1.391-.566-2.804-1.134-4.259-1.517-.998-.263-2.32-.569-3.15.257-.444.442-.654,1.197-.405,1.793.456,1.089,1.567,1.427,2.507.662,7.937-6.463,15.874-12.926,23.812-19.389,1.127-.917,2.253-1.835,3.38-2.752,1.498-1.22-.636-3.331-2.121-2.121-7.937,6.463-15.874,12.926-23.812,19.389-1.127.917-2.253,1.835-3.38,2.752l2.507.662c-.1-.238.012.154.008.236-.013.238-.144.651-.384.898-.136.14-.429.267-.507.306.049-.024-.47.044-.148.027.5-.027-.125-.056.15.003.25.054.499.104.746.17,1.455.383,2.868.951,4.259,1.517,4.82,1.963,9.608,4.344,14.271,6.749,12.424,6.41,24.656,13.527,35.825,21.963,2.465,1.862,4.867,3.816,7.147,5.902,1.005.92,2.01,2.188,3.416,2.486,2.8.594,3.3-2.852,3.229-4.818-.133-3.682-1.179-7.372-2.34-10.843-1.728-5.168-4.011-10.167-6.674-14.918-6.7-11.955-16.055-22.628-27.699-29.964-1.56-.983-3.161-1.898-4.794-2.754-1.709-.895-3.227,1.693-1.514,2.59Z"/>
  </g>
  <g>
    <g>
      <path class="cls-3" d="M147.164,132.093c10.189,20.152,15.717,37.582,18.071,52.555,9.083,57.792-29.122,79.003-29.122,79.003,0,0-63.812,2.433-76.866,0"/>
      <path class="cls-4" d="M145.869,132.85c10.917,21.642,19.552,45.64,19.255,70.187-.198,16.373-4.874,32.764-15.047,45.775-2.981,3.812-6.386,7.319-10.159,10.353-.166.134-.334.266-.502.398-.37.292.052-.036-.262.203-.318.242-.637.481-.961.715-.474.344-.955.68-1.443,1.004-.272.181-1.245.57-1.392.869.439-.894,1.041-.128.639-.199-.134-.024-.302.011-.438.016-.596.022-1.192.043-1.787.064-2.172.076-4.344.148-6.516.216-7.134.224-14.27.411-21.406.551-8.183.16-16.369.266-24.554.219-6.384-.036-12.823-.046-19.182-.685-1.152-.116-1.424-.141-2.469-.333-1.887-.346-2.697,2.544-.798,2.893,5.539,1.017,11.337.97,16.946,1.065,8.191.139,16.385.066,24.575-.062,11.792-.185,23.642-.27,35.419-.937,1.567-.089,3.018-1.426,4.227-2.317,3.657-2.698,6.992-5.818,9.976-9.244,10.491-12.044,16.29-27.326,17.75-43.147,2.195-23.787-4.843-47.645-14.506-69.128-1.515-3.367-3.114-6.695-4.777-9.992-.87-1.724-3.459-.207-2.59,1.514h0Z"/>
    </g>
    <g>
      <path class="cls-3" d="M59.247,263.651s-69.318-36.191-11.052-131.559c0,0,36.915-45.66,98.969,0"/>
      <path class="cls-4" d="M60.004,262.356c-1.57-.821-3.055-1.836-4.497-2.859-.369-.261-.734-.527-1.097-.796-.174-.129-.347-.259-.52-.39-.096-.073-.191-.146-.287-.218-.272-.207.159.125-.114-.088-.861-.672-1.708-1.362-2.538-2.072-1.953-1.671-3.817-3.447-5.582-5.316-4.42-4.678-8.099-9.804-11.112-15.563-3.711-7.094-6.115-14.853-7.193-22.783-1.392-10.231-.59-20.69,1.625-30.744,3.062-13.899,8.698-27.123,15.521-39.57,1.609-2.935,3.178-6.08,5.065-8.827.167-.244.395-.462.592-.681,1.123-1.25,2.331-2.424,3.579-3.547,4.728-4.257,10.226-7.81,16.196-10.478,8.633-3.858,18.137-5.522,27.568-5.041,13.678.698,26.756,5.838,38.411,12.807,3.713,2.22,7.301,4.64,10.789,7.198,1.559,1.143,3.057-1.459,1.514-2.59-12.369-9.07-26.382-16.582-41.606-19.343-10.491-1.903-21.351-1.455-31.529,1.815-7.338,2.357-14.176,6.058-20.238,10.806-2.615,2.048-5.324,4.309-7.395,6.935-.8,1.015-1.405,2.225-2.062,3.337-1.114,1.887-2.202,3.789-3.259,5.709-1.95,3.54-3.799,7.137-5.524,10.793-3.099,6.569-5.821,13.331-7.965,20.275-3.38,10.945-5.348,22.455-4.896,33.935.348,8.834,2.136,17.611,5.544,25.779,2.772,6.644,6.517,12.803,11.108,18.346,3.346,4.04,7.13,7.719,11.268,10.944,2.153,1.678,4.398,3.352,6.809,4.649.105.056.208.116.313.171,1.709.894,3.227-1.694,1.514-2.59h0Z"/>
    </g>
  </g>
  <path class="cls-5" d="M147.001,198.931c0,40.095-22.852,53.779-50.639,53.779s-49.985-13.684-49.985-53.779,22.525-77.291,50.312-77.291,50.312,30.653,50.312,77.291Z"/>
  <g>
    <g>
      <path class="cls-5" d="M72.043,15.769S24.35,29.284,25.372,82.633l5.511,32.986s3.18,15.956,36.456,28.077l23.524,15.395,36.499-12.058s44.274-15.742,37.17-63.784c0,0,6.353-55.038-51.821-69.533,0,0-33.245-5.427-40.668,2.055Z"/>
      <g>
        <path class="cls-3" d="M24.883,95.718c.758-10.089,4.141-19.816,8.202-29.092,3.12-7.125,6.77-14.223,12.409-19.557,5.639-5.334,13.633-8.674,21.142-6.989,7.413,1.664,13.181,8.018,15.669,15.246s2.09,15.201.497,22.712c-1.066,5.028-2.66,10.15-1.78,15.201,1.482,8.504,10.927,14.601,19.238,12.417s13.706-12.179,10.988-20.358c-.866-2.607-2.391-4.927-3.605-7.388-3.873-7.853-4.456-17.311-1.58-25.636.795-2.301,1.857-4.54,3.414-6.406,4.285-5.137,11.798-6.624,18.245-5.096,6.447,1.528,11.997,5.588,16.921,10.034,12.704,11.468,22.95,28.111,19.986,45.127,1.816-13.099.698-26.582-3.246-39.154-1.684-5.367-3.894-10.603-7.045-15.241-2.162-3.183-4.748-6.055-7.515-8.718-16.465-15.851-40.159-24.172-62.778-20.766-22.619,3.407-43.461,18.952-52.172,40.312-5.203,12.757-6.105,26.787-6.944,40.526-.038.621.024,1.406.602,1.619s.857-1.083.274-.877"/>
        <g>
          <g>
            <path class="cls-2" d="M93.455,101.822c13.828,1.479,15.265-5.914,12.966-12.482-1.379-3.941-4.998-7.872-5.587-8.606-1.59-1.978-3.36-3.833-5.114-5.663,0,0-5.128,6.273-8.053,12.192-3.377,6.834-4.047,13.506,5.789,14.558Z"/>
            <path class="cls-4" d="M93.455,103.322c5.174.524,12.228.177,14.607-5.393,2.112-4.943-.42-10.7-3.331-14.708-2.382-3.279-5.153-6.289-7.951-9.211-.519-.542-1.616-.62-2.121,0-3.173,3.891-6.152,8.121-8.357,12.638-1.899,3.89-3.863,9.304-.82,13.152,1.916,2.423,5.05,3.18,7.973,3.521,1.914.223,1.898-2.779,0-3-2.298-.268-5.242-.969-6.208-3.362-.863-2.137-.038-4.725.741-6.753,1.956-5.094,5.359-9.864,8.792-14.075h-2.121c2.234,2.333,4.394,4.724,6.428,7.234,1.815,2.239,3.472,4.719,4.247,7.521.885,3.199.688,6.777-2.55,8.486-2.776,1.466-6.318,1.255-9.329.95-1.919-.194-1.906,2.807,0,3Z"/>
          </g>
          <path class="cls-4" d="M85.086,93.319c6.682,4.137,17.437,4.872,22.024-2.681,1.005-1.654-1.588-3.164-2.59-1.514-3.709,6.106-12.699,4.837-17.92,1.605-1.646-1.019-3.154,1.575-1.514,2.59h0Z"/>
        </g>
        <path class="cls-4" d="M67.738,142.249c-13.888-5.341-26.82-14.052-34.115-27.343-4.659-8.488-6.532-18.034-6.738-27.623-.099-4.593-.08-9.196.471-13.763,1.156-9.58,4.341-19.58,9.382-28.111,3.348-5.666,7.553-10.777,12.478-15.144,2.811-2.492,5.844-4.714,9.044-6.68,3.142-1.93,6.844-3.94,10.031-5.108,6.333-2.32,13.312-3.484,19.977-4.323,3.663-.461,7.387-.803,11.082-.629,2.36.111,4.725.436,7.057.806,10.948,1.737,21.658,5.449,30.77,11.861,11.676,8.216,19.366,20.561,23.082,34.227,2.669,9.816,3.883,20.301,3.89,30.461.004,5.351-.416,10.709-1.462,15.961-.824,4.138-1.853,8.302-3.984,11.978-3.448,5.946-8.756,10.773-14.205,14.861-4.288,3.217-8.845,6.092-13.569,8.625-.741.398-1.486.792-2.244,1.158-1.738.839-.218,3.427,1.514,2.59,3.011-1.454,5.916-3.166,8.745-4.942,5.833-3.661,11.468-7.838,16.235-12.83,2.437-2.552,4.683-5.356,6.398-8.448,2.161-3.898,3.257-8.302,4.092-12.65,2.094-10.9,1.729-22.068.249-33.02-1.228-9.087-3.181-17.988-7.056-26.343-3.047-6.571-7.223-12.634-12.378-17.731-8.706-8.608-19.946-14.188-31.755-17.127-4.96-1.235-10.132-2.167-15.245-2.431-7.771-.402-15.802,1.055-23.363,2.713-2.954.648-5.955,1.333-8.792,2.399-3.682,1.383-7.239,3.295-10.585,5.35-6.316,3.878-12.028,8.765-16.722,14.507-7.395,9.047-12.275,19.943-14.602,31.368-1.058,5.194-1.608,10.464-1.55,15.762.042,3.803.023,7.576.42,11.367.537,5.122,1.593,10.189,3.382,15.025,4.861,13.143,14.671,23.415,26.759,30.285,4.006,2.277,8.21,4.179,12.508,5.832,1.803.694,2.584-2.206.798-2.893h0Z"/>
      </g>
    </g>
    <g>
      <g>
        <path class="cls-4" d="M67.268,65.684c-3.328-1.335-6.999,2.557-8.414,5.894s-.763,7.454,1.608,10.155c1.914,2.181,5.293,3.364,7.785,1.854,1.121-.679,1.917-1.801,2.502-2.98,0,0,5.295-11.402-3.481-14.924Z"/>
        <ellipse class="cls-1" cx="68.054" cy="71.985" rx="2.858" ry="2.827" transform="translate(-23.194 110.548) rotate(-69.518)"/>
      </g>
      <g>
        <path class="cls-4" d="M120.848,65.684c3.328-1.335,6.999,2.557,8.414,5.894,1.415,3.337.763,7.454-1.608,10.155-1.914,2.181-5.293,3.364-7.785,1.854-1.121-.679-1.917-1.801-2.502-2.98,0,0-5.295-11.402,3.481-14.924Z"/>
        <ellipse class="cls-1" cx="120.258" cy="71.985" rx="2.827" ry="2.858" transform="translate(-17.586 46.632) rotate(-20.482)"/>
      </g>
    </g>
  </g>
  <g>
    <path class="cls-3" d="M60.533,259.04c-5.51,0-24.601,10.081-8.489,10.044,3.296-.008,18.465.978,18.465-2.943v-3.066"/>
    <path class="cls-4" d="M58.29,270.685c-1.466,0-2.953-.029-4.412-.066-.752-.019-1.369-.035-1.795-.035-.041,0-.087,0-.129,0-4.239,0-6.52-.671-7.39-2.171-.292-.504-.663-1.554.127-2.925,2.107-3.657,12.023-7.948,15.841-7.948v3c-3.635,0-12.353,4.553-13.254,6.43.356.197,1.486.614,4.677.614.042,0,.083,0,.124,0,.445,0,1.09.016,1.875.036,12.75.33,14.78-.948,15.062-1.511l-.008-3.035h3v3.066c0,.821-.333,1.579-.962,2.192-1.988,1.938-7.204,2.352-12.757,2.352Z"/>
  </g>
  <g>
    <path class="cls-3" d="M133.998,258.577c5.51,0,24.601,10.081,8.489,10.044-3.296-.008-18.465.978-18.465-2.943v-2.026s0-1.04,0-1.04"/>
    <path class="cls-4" d="M136.245,270.222c-5.555,0-10.772-.414-12.761-2.353-.629-.613-.962-1.371-.962-2.192v-3.066h3v3.066c.274.531,2.304,1.804,15.052,1.479.811-.021,1.496-.033,1.917-.036,3.265.015,4.402-.415,4.762-.614-.901-1.876-9.62-6.43-13.255-6.43v-3c3.817,0,13.733,4.291,15.842,7.948.79,1.371.418,2.421.126,2.925-.869,1.5-3.149,2.171-7.389,2.171-.043,0-.081,0-.132,0-.426,0-1.044.016-1.795.035-1.457.037-2.943.066-4.405.066Z"/>
  </g>
  <g>
    <g>
      <path class="cls-2" d="M94.456,153.291c-2.115-2.26-9.674-9.547-19.968-10.454-1.462-.129-2.781.874-3.144,2.296-1.4,5.485-4.117,19.156.976,27.451.715,1.164,2.108,1.727,3.423,1.359,4.238-1.186,14.084-4.406,19.902-10.072.744-.725,1.065-1.781.858-2.799l-1.284-6.306c-.113-.555-.375-1.062-.762-1.476Z"/>
      <path class="cls-4" d="M74.942,175.403c-1.504,0-2.955-.781-3.772-2.113-5.36-8.728-2.578-22.833-1.133-28.491.535-2.102,2.455-3.499,4.569-3.307,10.773.949,18.672,8.564,20.836,10.876h0c.557.596.937,1.332,1.099,2.129l1.284,6.307c.301,1.479-.163,2.987-1.239,4.035-6.08,5.921-16.348,9.249-20.48,10.405-.385.107-.776.16-1.164.16ZM74.24,144.176c-.726,0-1.395.534-1.587,1.29-1.36,5.327-4.003,18.562.817,26.411.401.654,1.188.967,1.908.766,3.934-1.101,13.689-4.252,19.325-9.739.415-.404.593-.988.476-1.562l-1.283-6.306c-.062-.307-.21-.592-.426-.823-1.999-2.135-9.282-9.167-19.101-10.032-.044-.004-.087-.005-.13-.005Z"/>
    </g>
    <g>
      <path class="cls-2" d="M98.921,153.291c2.115-2.26,9.674-9.547,19.968-10.454,1.462-.129,2.781.874,3.144,2.296,1.4,5.485,4.117,19.156-.976,27.451-.715,1.164-2.108,1.727-3.423,1.359-4.238-1.186-14.084-4.406-19.902-10.072-.744-.725-1.065-1.781-.858-2.799l1.284-6.306c.113-.555.375-1.062.762-1.476Z"/>
      <path class="cls-4" d="M118.435,175.403c-.388,0-.779-.052-1.165-.16-4.132-1.156-14.399-4.483-20.479-10.404-1.076-1.047-1.54-2.556-1.239-4.035l1.284-6.306c.161-.795.541-1.532,1.099-2.128h0c2.164-2.312,10.062-9.928,20.836-10.877,2.101-.189,4.033,1.205,4.57,3.307,1.445,5.659,4.227,19.762-1.133,28.492-.817,1.332-2.269,2.113-3.773,2.113ZM99.907,154.214c-.216.23-.362.515-.425.821l-1.284,6.308c-.117.574.062,1.158.477,1.562,5.635,5.488,15.391,8.639,19.323,9.739.728.204,1.51-.113,1.91-.765,4.82-7.851,2.178-21.085.818-26.411-.204-.8-.953-1.351-1.719-1.285-9.818.865-17.102,7.896-19.101,10.032Z"/>
    </g>
    <g>
      <rect class="cls-2" x="92.724" y="152.951" width="7.668" height="11.314" rx="2.995" ry="2.995"/>
      <path class="cls-4" d="M97.397,165.615h-1.678c-2.396,0-4.345-1.949-4.345-4.345v-5.324c0-2.396,1.949-4.345,4.345-4.345h1.678c2.396,0,4.345,1.949,4.345,4.345v5.324c0,2.396-1.949,4.345-4.345,4.345ZM95.719,154.301c-.907,0-1.646.738-1.646,1.645v5.324c0,.907.738,1.645,1.646,1.645h1.678c.907,0,1.646-.738,1.646-1.645v-5.324c0-.907-.738-1.645-1.646-1.645h-1.678Z"/>
    </g>
  </g>
  <g id="oAfnbX">
    <path class="cls-4" d="M56.145,50.438l4.613-.105c10.675-.089,21.107,2.601,31.62,3.728,9.322,1,19.892-2.231,29.368-3.088,13.121-1.186,27.001-.223,39.987,1.927.95.157,5.044.677,5.386,1.186l-.868,8.546-.377.561c-3.236.817-3.922,4.088-4.659,6.915-3.816,14.63-4.37,27.089-22.894,29.346-16.115,1.964-26.814-4.099-32.607-19.001-1.378-3.546-3.64-13.633-7.358-14.852-7.135-2.339-9.04,9.922-10.859,14.624-4.383,11.331-10.514,17.655-23.036,19.194-13.344,1.639-24.592-2.405-29.36-15.608-1.587-4.394-3.003-17.122-5.778-19.56-.849-.746-2.033-.651-2.441-1.626l-.871-8.538c.909-1.37,26.716-3.653,30.135-3.649ZM54.581,54.191c-13.263.786-18.229,3.526-17.466,17.595.638,11.764,4.818,22.209,17.692,23.913,17.574,2.325,28.871-7.033,31.076-24.283.547-4.283,1.544-10.404-2.358-13.194-5.672-4.054-21.967-4.445-28.944-4.031ZM128.718,54.191c-5.311.243-20.737,1.02-21.814,7.904-1.239,7.923,2.202,21.246,7.945,27.052,8.146,8.235,27.543,9.882,35.365.617,4.951-5.865,7.721-21.642,4.774-28.556-3.366-7.901-19.102-7.344-26.271-7.017ZM35.877,58.169c-2.38-.597-5.642-1.435-7.507.619,2.306.862,4.834,1.515,7.108.083.321-.202.546.016.399-.702ZM164.756,58.788c-1.865-2.054-5.127-1.216-7.507-.619-.147.718.078.5.399.702,2.172,1.368,4.887.813,7.108-.083Z"/>
  </g>
</svg>